<svg width="512" height="512" viewBox="0 0 512 512" fill="none" xmlns="http://www.w3.org/2000/svg">
<circle cx="256" cy="256" r="256" fill="white"/>
<path fill-rule="evenodd" clip-rule="evenodd" d="M491 256C491 385.787 385.787 491 256 491C126.213 491 21 385.787 21 256C21 126.213 126.213 21 256 21C385.787 21 491 126.213 491 256ZM272.301 179.407H306.335L256.053 333.109H217.847L184.032 229.031L149.12 333.109H111.134L60.6315 179.407H97.52L132.213 287.438L168.443 179.407H201.379L236.511 288.316L272.301 179.407ZM451.814 178.898H340.484L330.896 208.177H451.814V178.898ZM320.059 241.36H451.815V270.639H310.655L320.059 241.36ZM451.815 303.822H300.001L290.413 333.101H451.815V303.822Z" fill="#336690"/>
</svg>
